# xmcd
#
# Track frame offsets:
# 150
# 16585
# 32316
# 51461
# 70485
# 88432
# 106288
# 115908
# 130759
# 146757
#
# Disc length: 2471 seconds
#
# Revision: 1
# Processed by: cddbd v1.5.2PL0 Copyright (c) Steve Scherf et al.
# Submitted via: CedeCatalogueitor 2.6.0.6 http://personales.ya.com/cdcatalogueitor
#
DISCID=8909a50a
DTITLE=Our Broken Garden - Golden Sea
DYEAR=1900
DGENRE=
TTITLE0=The Departure
TTITLE1=In The Lowlands
TTITLE2=The Fiery And Loud
TTITLE3=Garden Grow
TTITLE4=Nightsong
TTITLE5=The Burial
TTITLE6=Seven Wild Horses
TTITLE7=Share 
TTITLE8=Warriors Of Love
TTITLE9=The Darkred Roses
EXTD=
EXTT0=
EXTT1=
EXTT2=
EXTT3=
EXTT4=
EXTT5=
EXTT6=
EXTT7=
EXTT8=
EXTT9=
PLAYORDER=
